<?xml version="1.0" encoding="utf-8"?>
<!-- Generator: Adobe Illustrator 21.0.2, SVG Export Plug-In . SVG Version: 6.00 Build 0)  -->
<svg version="1.1" id="Capa_1" xmlns="http://www.w3.org/2000/svg" xmlns:xlink="http://www.w3.org/1999/xlink" x="0px" y="0px"
	 viewBox="0 0 315.4 315.4" style="enable-background:new 0 0 315.4 315.4;" xml:space="preserve">
<style type="text/css">
	.st0{fill:#42A8F5;}
</style>
<g>
	<g>
		<path class="st0" d="M99.7,181.8l-7.9,7.7c-1.1,1.1-1.8,2.6-1.8,4.1v3.3c0,3.2,2.6,5.8,5.8,5.8h47.4c3.2,0,5.8-2.6,5.8-5.8v-4.3
			c0-3.2-2.6-5.8-5.8-5.8H117l0.7-0.7c17.1-16.5,29.2-29.5,29.2-46.4c0-13.5-8.8-27.1-28.4-27.1c-8.6,0-17,2.8-23.6,7.7
			c-2.2,1.6-2.9,4.5-1.8,7l1.5,3.2c0.7,1.6,2.1,2.7,3.7,3.2c1.7,0.5,3.4,0.1,4.8-0.8c4.3-3,8.7-4.5,13.1-4.5c8.6,0,13,4.3,13,12.7
			C129.1,152.5,119.7,162.7,99.7,181.8z"/>
	</g>
	<g>
		<path class="st0" d="M186.1,114.1c-0.2,0-0.3,0-0.5,0h-1.8c-1.9,0-3.7,0.9-4.7,2.5l-35.4,50.7c-0.7,1-1,2.1-1,3.3v4.1
			c0,3.2,2.6,5.8,5.8,5.8h32.3v16.6c0,3.2,2.6,5.8,5.8,5.8h5.5c3.2,0,5.8-2.6,5.8-5.8v-16.6h5.7c3.2,0,5.8-2.6,5.8-5.8v-3.8
			c0-3.2-2.6-5.8-5.8-5.8h-5.7v-45.2c0-3.2-2.6-5.8-5.8-5.8h-5.5C186.4,114.1,186.3,114.1,186.1,114.1z M180.8,165h-17.5
			c4.4-6.4,12-17.5,17.5-25.7V165z"/>
	</g>
	<g>
		<path class="st0" d="M149.9,290.4c-68,0-123.4-55.3-123.4-123.4c0-64.4,49.6-117.4,112.6-122.9v19.7c0,1.4,0.8,2.7,2,3.3
			c0.6,0.3,1.2,0.4,1.8,0.4c0.7,0,1.5-0.2,2.1-0.6l44.7-30c1-0.7,1.7-1.9,1.7-3.1c0-1.3-0.6-2.4-1.7-3.1L145,0.7
			c-1.2-0.8-2.7-0.9-3.9-0.2s-2,1.9-2,3.3V19C62.4,24.5,1.5,88.8,1.5,167c0,81.8,66.6,148.4,148.4,148.4
			c37.9,0,73.9-14.3,101.5-40.2L234.3,257C211.4,278.5,181.4,290.4,149.9,290.4z"/>
	</g>
	<g>
		<path class="st0" d="M276.6,89.7c-5.1-8.4-11.1-16.3-17.8-23.5l-18.3,17c5.6,6,10.5,12.6,14.8,19.5L276.6,89.7z"/>
	</g>
	<g>
		<path class="st0" d="M272.1,150.3l24.8-3.4c-1.3-9.7-3.6-19.4-6.8-28.6l-23.6,8.2C269.1,134.2,271,142.2,272.1,150.3z"/>
	</g>
	<g>
		<path class="st0" d="M235,45.5c-8-5.6-16.7-10.5-25.7-14.4l-10,22.9c7.5,3.3,14.6,7.3,21.3,12L235,45.5z"/>
	</g>
	<g>
		<path class="st0" d="M245.2,245.4l19.3,15.9c6.2-7.6,11.8-15.8,16.4-24.5L258.8,225C255,232.2,250.4,239,245.2,245.4z"/>
	</g>
	<g>
		<path class="st0" d="M272.9,176.6c-0.6,8.2-2.1,16.3-4.3,24.1l24.1,6.8c2.7-9.4,4.4-19.2,5.1-29L272.9,176.6z"/>
	</g>
</g>
</svg>
