<?xml version="1.0" encoding="utf-8"?>
<!-- Generator: Adobe Illustrator 21.0.2, SVG Export Plug-In . SVG Version: 6.00 Build 0)  -->
<svg version="1.1" id="Capa_1" xmlns="http://www.w3.org/2000/svg" xmlns:xlink="http://www.w3.org/1999/xlink" x="0px" y="0px"
	 viewBox="0 0 456 456" style="enable-background:new 0 0 456 456;" xml:space="preserve">
<style type="text/css">
	.st0{fill:#42A8F5;}
</style>
<g>
	<g>
		<path class="st0" d="M61.2,282H20c-6,0-10.9,4.9-10.9,10.9v152.2c0,6,4.9,10.9,10.9,10.9h41.2c6,0,10.9-4.9,10.9-10.9V292.9
			C72.1,286.9,67.2,282,61.2,282z"/>
	</g>
</g>
<g>
	<g>
		<path class="st0" d="M443.2,294.4c-0.3-0.4-0.6-0.8-0.8-1.2c-6.1-6.8-16.4-7.7-23.6-2.1c-20,16.3-49.2,39.8-68.1,55.1
			c-16.7,13.3-37.3,21-58.7,21.8l-51.2,1.7c-9.4,0.3-18.2-4.5-23-12.6l-5.7-9.7c-1.5-2.5-2.5-5.3-3.1-8.2
			c-2.6-13.9,6.5-27.4,20.4-30l52.9-10c8.5-1.7,14.3-9.7,13.3-18.3c-1-8.2-8-14.3-16.2-14.4c-0.3,0-0.7,0-0.8,0c-0.4,0-0.9,0-1.3,0
			l-71.2-2.9c-24.7-0.9-46,3.9-71.2,16.1l-42.8,20.7v114l35.9-6.6c0.1-0.1,0.2-0.1,0.3-0.1c13.9-2,23.1-2.9,38.2-2.2l107.5,5
			c33.7,1.4,66.8-9.7,92.7-31.3l74.4-61.7C448,311.7,448.9,301.3,443.2,294.4z"/>
	</g>
</g>
<g>
	<g>
		<path class="st0" d="M307.4,0c-61.2,0.1-110.7,49.7-110.8,110.8c0,0.1,0,0.1,0,0.1c0,61.2,49.7,110.8,110.9,110.8
			S418.3,172,418.3,110.8S368.6,0,307.4,0z M333.1,80h13.4c5.5,0,10,4.5,10,10s-4.5,10-10,10h-13.4c-2,7.8-6,14.9-11.7,20.6
			c-7.5,7.5-17.5,11.9-28.1,12.5l37.7,35.7c4,3.8,4.2,10.1,0.4,14.1s-10.1,4.2-14.1,0.4l-55.9-52.9c-1.9-1.9-3.1-4.5-3.1-7.2
			c-0.1-5.6,4.4-10.1,10-10.2h22.4c6.2,0.1,12.2-2.3,16.7-6.7c1.8-1.9,3.3-4,4.6-6.3h-43.7c-5.5,0-10-4.5-10-10s4.5-10,10-10H312
			c-3.7-8-11.9-14-21.3-14h-22.4c-5.5,0-10-4.5-10-10s4.5-10,10-10h78.2c5.5,0,10,4.5,10,10s-4.5,10-10,10h-19.2
			C330.1,70.3,332,75,333.1,80z"/>
	</g>
</g>
</svg>
