<?xml version="1.0" encoding="utf-8"?>
<!-- Generator: Adobe Illustrator 21.0.2, SVG Export Plug-In . SVG Version: 6.00 Build 0)  -->
<svg version="1.1" id="Layer_1" xmlns="http://www.w3.org/2000/svg" xmlns:xlink="http://www.w3.org/1999/xlink" x="0px" y="0px"
	 viewBox="0 0 512 512" style="enable-background:new 0 0 512 512;" xml:space="preserve">
<style type="text/css">
	.st0{fill:#42A8F5;}
</style>
<g>
	<g>
		<path class="st0" d="M86.1,126.7c1.2,3.3,14,39.6,15.9,44.8c9.6,0,16,0,24.6,0c5.5-15.5,10.4-29.3,15.9-44.8
			C119.6,126.7,108,126.7,86.1,126.7z"/>
	</g>
</g>
<g>
	<g>
		<path class="st0" d="M187.1,332.7v-4.9c-2.9,0.8-6.4,1.3-9.8,1.3h-0.1l0,0l0,0c-16.9-0.1-31.2-11.5-35.6-27c-19.3,0-47.9,0-63.3,0
			c-2.6,0-5.2-1.2-6.9-3.2c-1.7-2-2.4-4.7-2-7.3c14.4-88,18.4-117.2,18.4-117.2s-12.6-35.7-16.4-46.2c-10.2,2.9-17.8,9.8-23.5,18.9
			c-6,9.6-3.9,6-46.9,128.7c0,0.1,0,0.1,0,0.1c-3.3,9.5,1.7,20,11.2,23.3s20-1.7,23.3-11.2c1.1-3.1,32.5-92.9,32.5-92.9
			s-11.2,60.2-26.2,137.6c-1.2,6.3,3.6,12.1,10,12.1c3.9,0,8.7,0,14,0v132.8c0,12.1,9.8,22,22,22s22-9.8,22-22V344.9
			c3.2,0,6.3,0,9.5,0v132.8c0,12.1,9.8,22,22,22s22-9.8,22-22V344.9c15.4,0,15.4,0.2,17.9-0.8C187.9,341.2,187.1,335.2,187.1,332.7z
			"/>
	</g>
</g>
<g>
	<g>
		<path class="st0" d="M114.5,38.8c-20.9,0-37.9,17-37.9,37.9c0,21.1,17.1,37.9,37.9,37.9s37.9-16.8,37.9-37.9
			C152.5,55.8,135.5,38.8,114.5,38.8z"/>
	</g>
</g>
<g>
	<g>
		<path class="st0" d="M511,276.6c-0.3-1-33.9-96.6-39.1-111.9c-6.8-19.9-17.4-31.9-31.5-35.8c-9.8,27.7-16,45.2-16,45.2
			s10.1,67.7,18.6,118.2c0.9,5.5-3.3,10.5-8.8,10.5c-15.6,0-44.6,0-63.9,0c-4.7,15.2-18.9,26.3-35.6,26.3c-3.1,0-6.2-0.4-8.9-1.1
			c0,5.4,0,1.7,0,10.8c1.5,4.2,5.4,6.8,9.6,6.8c3.9,0,8.7,0,14,0v132.8c0,12.1,9.8,22,22,22s22-9.8,22-22V345.6c3.2,0,6.3,0,9.5,0
			v132.8c0,12.1,9.8,22,22,22s22-9.8,22-22V345.6c5.3,0,10,0,14,0c6.4,0,11.2-5.8,10-12.1c-11.5-59.7-26-136.1-26-136.1
			s30.9,88.3,32,91.4c3.3,9.5,13.8,14.6,23.3,11.2C509.3,296.6,514.3,286.1,511,276.6z"/>
	</g>
</g>
<g>
	<g>
		<path class="st0" d="M369.4,127.4c1.2,3.3,14,39.6,15.9,44.8c9.6,0,16,0,24.6,0c5.5-15.5,10.4-29.3,15.9-44.8
			C404.3,127.4,390.9,127.4,369.4,127.4z"/>
	</g>
</g>
<g>
	<g>
		<path class="st0" d="M397.8,39.5c-20.9,0-37.9,17-37.9,37.9c0,21.1,17.1,37.9,37.9,37.9s37.9-16.9,37.9-37.9
			C435.7,56.5,418.8,39.5,397.8,39.5z"/>
	</g>
</g>
<g>
	<g>
		<path class="st0" d="M308.3,104.5h-17.1l-35,75.7l-35-75.7h-16.7c-25.1,0-45.6,20.4-45.7,45.5L158,291.8
			c-0.1,10.7,8.5,19.4,19.2,19.4h0.1c10.6,0,19.3-8.6,19.3-19.2l0.7-141.9c0,0,0,0,0-0.1c0-2.1,1.7-3.8,3.9-3.8s3.8,1.7,3.8,3.8
			v324.6c0,12.8,10.4,23.2,23.2,23.2s23.2-10.4,23.2-23.2v-185h10v185.2c0,12.8,10.4,23.2,23.2,23.2s23.2-10.4,23.2-23.2
			c0-306.5-0.4-131-0.4-324.7c0-2.2,1.8-4,4-4s4,1.7,4.1,3.9l-0.1,141.9c0,10.7,8.6,19.3,19.3,19.3l0,0c10.7,0,19.3-8.6,19.3-19.3
			l0.1-142C353.9,124.9,333.4,104.5,308.3,104.5z"/>
	</g>
</g>
<g>
	<g>
		<path class="st0" d="M256.4,11.7c-22.1,0-40,17.9-40,40c0,22.2,18,40,40,40s40-17.8,40-40C296.4,29.6,278.5,11.7,256.4,11.7z"/>
	</g>
</g>
<g>
	<g>
		<path class="st0" d="M272.6,94.8c-14.8,8.5-11.6,6.6-16.3,9.1c-4.7-2.5-1.5-0.7-16.3-9.1c-2.3-1.3-5.2,0.4-5.2,3
			c0,8.9,0,7.2,0,20.1c0,2.7,2.9,4.3,5.2,3l16.3-9.3l16.3,9.3c2.3,1.3,5.2-0.4,5.2-3c0-12.6,0-11.9,0-20.1
			C277.8,95.1,275,93.5,272.6,94.8z"/>
	</g>
</g>
</svg>
